<?xml version="1.0" encoding="UTF-8"?>
<svg width="1800px" height="657px" viewBox="0 0 1800 657" xmlns="http://www.w3.org/2000/svg" xmlns:xlink="http://www.w3.org/1999/xlink" version="1.1">
 <!-- Generated by Pixelmator Pro 1.3.2 -->
 <path id="path" d="M440.766 158.824 L443.673 153.448 C416.72 139.084 388.993 129.659 361.11 125.674 349.56 124.036 337.923 123.206 326.52 123.206 234.526 123.206 152.227 178.571 121.72 260.969 L151.33 271.938 C177.266 201.873 247.673 154.799 326.523 154.799 336.45 154.799 346.593 155.522 356.663 156.953 410.12 164.594 461.486 193.769 509.34 243.664 L526.77 226.925 C503.223 201.749 474.486 177.073 440.766 158.824 Z" fill="#62aeb2" fill-opacity="1" stroke="none"/>
 <path id="path-1" d="M224.906 527.738 C145.61 490.856 94.373 412.86 94.373 329.031 94.373 286.622 106.796 245.582 130.293 210.344 139.233 196.923 149.797 184.344 161.68 172.958 L176.237 188.172 C165.46 198.491 155.893 209.88 147.803 222.023 126.62 253.792 115.42 290.791 115.42 329.027 115.42 405.859 160.77 474.684 233.78 508.635 L224.906 527.738 Z" fill="#62aeb2" fill-opacity="1" stroke="none"/>
 <path id="path-2" d="M611.18 354.894 L602.053 333.586 C601.22 331.942 600.07 329.737 598.676 327.14 582.693 357.421 498.606 505.283 360.35 525.036 349.06 526.651 337.417 530.346 326.407 530.346 294.207 530.333 263.32 523.553 234.613 510.189 L224.073 529.516 C256.106 544.426 290.533 551.99 326.423 552.004 338.593 552.004 351.08 551.1 363.536 549.319 496.936 530.256 581.133 408.191 612.143 354.477 L611.18 354.894 Z" fill="#62aeb2" fill-opacity="1" stroke="none"/>
 <path id="path-3" d="M640.426 457.813 C613.38 494.584 583.533 526.421 551.513 552.43 L559.24 561.949 C590.903 536.225 620.486 505.02 647.376 469.078 702.406 544.199 793.966 633.312 926.69 652.268 L929.833 630.247 C794.18 610.867 703.323 514.902 649.3 433.23 646.757 429.375 640.426 457.813 640.426 457.813 Z" fill="#e47128" fill-opacity="1" stroke="none"/>
 <path id="path-4" d="M994.94 549.359 C977.42 550.506 959.59 549.842 941.703 547.285 900.943 541.455 861.443 525.173 824.293 498.89 L812.743 515.225 C852.506 543.359 894.94 560.808 938.87 567.091 952.09 568.982 965.426 569.939 978.506 569.939 984.01 569.939 989.483 569.729 994.94 569.396 L994.94 549.359 Z" fill="#e5ad24" fill-opacity="1" stroke="none"/>
 <path id="path-5" d="M621.743 350.365 L611.176 354.894 602.05 333.586 C595.213 320.119 569.596 272.692 526.77 226.922 L509.34 243.661 C546.9 282.82 569.463 321.637 577.423 336.507 L609.463 392.449 636.853 376.738 621.743 350.365 Z" fill="#e47128" fill-opacity="1" stroke="none"/>
 <path id="path-6" d="M978.51 531.557 C967.16 531.557 955.65 530.729 944.3 529.095 801.61 508.708 718.13 363.758 702.843 334.903 L724.92 323.198 C733.68 339.729 814.353 485.276 947.847 504.349 958.033 505.813 968.34 506.56 978.507 506.56 L978.507 531.557 Z" fill="#62aeb2" fill-opacity="1" stroke="none"/>
 <path id="path-7" d="M1177.33 273.336 C1167.82 242.44 1150.08 213.932 1126.02 190.89 1094.49 160.715 1054.45 141.425 1010.226 135.109 L1014.27 106.788 C1064.44 113.948 1109.917 135.886 1145.79 170.22 1173.363 196.626 1193.72 229.37 1204.66 264.915 L1177.33 273.336 Z" fill="#00878f" fill-opacity="1" stroke="none"/>
 <path id="path-8" d="M795.356 182.326 L781.88 166.972 C830.413 124.327 883.22 98.677 938.843 90.74 951.976 88.862 965.29 87.908 978.4 87.908 1046.133 87.908 1109.59 112.944 1157.08 158.407 L1142.96 173.175 C1099.29 131.37 1040.85 108.345 978.403 108.345 966.253 108.345 953.916 109.232 941.733 110.973 890.103 118.34 840.856 142.349 795.356 182.326 Z" fill="#00878f" fill-opacity="1" stroke="none"/>
 <path id="path-9" d="M691.6 381.35 L620.756 347.633 637.607 312.192 C648.55 289.184 689.91 209.126 762.74 145.157 L792.22 119.264 843.977 178.254 814.497 204.147 C751.35 259.609 715.08 331.972 708.453 345.916 L691.6 381.35 Z" fill="#e5ad24" fill-opacity="1" stroke="none"/>
 <path id="path-10" d="M91.936 423.668 C78.853 393.797 72.22 361.954 72.22 329.031 72.22 263.814 98.556 202.7 146.38 156.936 163.086 140.948 181.94 127.312 202.42 116.406 L213.936 138.05 C195.437 147.905 178.406 160.218 163.316 174.662 120.376 215.75 96.726 270.574 96.726 329.031 96.726 358.549 102.666 387.073 114.38 413.827 L91.936 423.668 Z" fill="#00878f" fill-opacity="1" stroke="none"/>
 <path id="path-11" d="M176.357 188.306 L161.56 172.821 C205.35 130.927 263.936 107.855 326.523 107.855 338.723 107.855 351.097 108.739 363.296 110.48 393.177 114.752 422.67 124.68 450.953 139.981 L440.77 158.824 C414.716 144.73 387.633 135.602 360.266 131.687 349.07 130.09 337.713 129.276 326.523 129.276 269.476 129.279 216.147 150.243 176.357 188.306 Z" fill="#e5ad24" fill-opacity="1" stroke="none"/>
 <path id="path-12" d="M29.73 329.031 L16.656 329.031 C16.656 248.503 49.086 173.121 107.973 116.773 L117.01 126.224 C60.726 180.082 29.73 252.105 29.73 329.031 Z" fill="#e5ad24" fill-opacity="1" stroke="none"/>
 <path id="path-13" d="M547.06 105.444 C494.237 63.195 436.337 37.329 374.967 28.562 358.893 26.267 342.593 25.106 326.523 25.106 262.946 25.106 201.91 42.992 150.013 76.836 L140.496 62.225 C195.23 26.53 259.56 7.664 326.527 7.664 343.416 7.664 360.546 8.885 377.433 11.296 441.93 20.51 502.66 47.604 557.946 91.82 L547.06 105.444 Z" fill="#00878f" fill-opacity="1" stroke="none"/>
 <path id="path-14" d="M669.67 218.661 L635.276 194.379 C690.297 116.353 785.356 19.137 925.763 -0.92 L931.713 40.774 C806.17 58.71 719.92 147.408 669.67 218.661 Z" fill="#00878f" fill-opacity="1" stroke="none"/>
 <path id="path-15" d="M709.05 223.687 L684.713 205.278 C732.867 141.545 814.92 62.048 932.356 45.283 947.63 43.099 963.123 41.992 978.4 41.992 1017.98 41.992 1056.319 49.215 1092.356 63.462 L1081.147 91.85 C1048.696 79.02 1014.13 72.517 978.403 72.517 964.567 72.517 950.526 73.524 936.67 75.505 829.517 90.8 753.746 164.527 709.05 223.687 Z" fill="#62aeb2" fill-opacity="1" stroke="none"/>
 <path id="path-16" d="M659.987 273.385 L625.936 259.519 636.06 234.629 636.933 233.252 C680.893 163.637 777.293 43.615 929.023 21.958 945.406 19.617 962.02 18.429 978.4 18.429 L978.4 55.212 C963.753 55.212 948.886 56.275 934.22 58.37 804.74 76.853 718.577 173.288 668.876 251.528 L659.987 273.385 Z" fill="#62aeb2" fill-opacity="1" stroke="none"/>
 <path id="path-17" d="M659.406 235.686 L641.79 214.062 C612.513 172.551 579.727 137.15 544.34 108.846 L560.667 88.408 C597.867 118.163 632.263 155.235 662.89 198.598 L679.66 219.135 659.406 235.686 Z" fill="#62aeb2" fill-opacity="1" stroke="none"/>
 <path id="path-18" d="M1200.487 113.038 C1141.256 56.332 1062.386 25.106 978.403 25.106 962.347 25.106 946.05 26.27 929.97 28.562 L927.51 11.292 C944.4 8.881 961.526 7.661 978.406 7.661 1066.903 7.661 1150.053 40.607 1212.54 100.431 L1200.487 113.038 Z" fill="#e47128" fill-opacity="1" stroke="none"/>
 <path id="path-19" d="M370.717 599.668 L364.363 555.158 C542.236 529.752 630.866 322.464 631.74 320.373 635.68 310.898 730.756 87.418 934.223 58.367 L940.57 102.876 C762.153 128.349 674.09 335.567 673.22 337.658 669.266 347.163 574.13 570.61 370.717 599.668 Z" fill="#00878f" fill-opacity="1" stroke="none"/>
 <path id="path-20" d="M183.82 554.672 L203.33 521.081 C251.203 548.909 306.683 559.291 363.78 551.117 L369.28 589.556 C406.473 584.243 442.813 571.503 477.283 551.693 L444.73 494.985 C417.476 510.646 388.977 520.685 360.02 524.82 348.793 526.424 337.49 527.238 326.406 527.238 269.803 527.234 216.89 506.417 177.413 468.621 158.293 450.312 143.38 429.115 133.096 405.626 L76.986 430.215 C90.383 460.801 109.923 488.852 135.05 512.91 L132.223 515.865 C147.94 530.913 165.266 543.873 183.82 554.672 Z" fill="#00878f" fill-opacity="1" stroke="none"/>
 <path id="path-21" d="M326.423 609.736 C248.47 609.733 175.313 580.781 120.406 528.225 L132.743 515.325 C184.313 564.693 253.09 591.88 326.403 591.884 340.536 591.884 354.917 590.85 369.16 588.812 515.849 567.852 604.516 443.655 644.433 371.178 L654.556 347.206 670.996 354.156 660.293 379.383 C618.88 454.714 526.316 584.393 371.687 606.484 356.606 608.639 341.38 609.736 326.423 609.736 Z" fill="#00878f" fill-opacity="1" stroke="none"/>
 <path id="path-22" d="M326.423 658.034 C235.96 658.021 150.953 624.31 87.04 563.109 L109.637 539.484 C167.44 594.835 244.423 625.321 326.407 625.334 342.137 625.334 358.106 624.187 373.883 621.926 435.03 613.185 492.623 587.135 545.073 544.5 L565.68 569.876 C508.566 616.299 445.596 644.704 378.513 654.292 361.21 656.773 343.683 658.034 326.423 658.034 Z" fill="#00878f" fill-opacity="1" stroke="none"/>
 <path id="path-23" d="M375.336 632.034 L371.293 603.713 C503.07 584.887 590.256 486.79 640.236 407.707 641.766 405.052 655.223 381.691 660.376 371.885 L685.69 385.199 C679.983 396.054 665.473 421.197 664.856 422.261 L664.567 422.748 C611.39 506.968 518.05 611.647 375.336 632.034 Z" fill="#e5ad24" fill-opacity="1" stroke="none"/>
 <path id="path-24" d="M184.86 552.888 C102.817 505.223 53.837 421.538 53.837 329.031 53.837 315.57 54.893 302.073 56.983 288.92 L77.153 292.125 C75.236 304.225 74.26 316.641 74.26 329.031 74.26 414.17 119.44 491.253 195.113 535.215 L184.86 552.888 Z" fill="#62aeb2" fill-opacity="1" stroke="none"/>
 <path id="path-25" d="M86.443 293.596 L47.7 287.446 C58.913 216.76 97.966 154.298 157.67 111.574 218.306 68.175 293.81 50.276 370.323 61.198 387.553 63.662 404.716 67.685 421.346 73.151 L409.1 110.436 C394.65 105.687 379.736 102.192 364.776 100.051 229.02 80.718 106.733 165.691 86.443 293.596 Z" fill="#e47128" fill-opacity="1" stroke="none"/>
 <path id="path-26" d="M81.393 569.016 C45.623 534.775 18.533 494.558 0.873 449.478 L46.51 431.579 C61.556 469.982 84.693 504.299 115.28 533.578 L81.393 569.016 Z" fill="#e5ad24" fill-opacity="1" stroke="none"/>
 <path id="path-27" d="M326.423 635.546 C241.776 635.536 162.286 604.043 102.566 546.864 48.21 494.821 15.247 425.523 9.743 351.742 L9.713 351.212 8.907 329.564 37.48 328.497 38.276 349.874 C43.31 416.502 73.156 479.107 122.336 526.197 176.71 578.254 249.183 606.928 326.407 606.938 341.25 606.938 356.346 605.854 371.29 603.713 L375.34 632.034 C359.06 634.362 342.6 635.546 326.423 635.546 Z" fill="#62aeb2" fill-opacity="1" stroke="none"/>
 <path id="path-28" d="M457.707 535.529 L448.823 520.041 456.56 515.599 C557.473 457.639 613.846 346.839 624.123 325.218 L627.953 317.158 644.067 324.825 640.236 332.886 C629.563 355.347 570.966 470.482 465.446 531.083 L457.707 535.529 Z" fill="#e5ad24" fill-opacity="1" stroke="none"/>
 <path id="path-29" d="M680.646 317.305 C679.753 315.16 673.39 300.143 661.287 278.188 L665.83 275.684 C623.74 199.265 529.673 67.718 372.586 45.283 357.306 43.099 341.807 41.992 326.52 41.992 L326.52 72.514 C340.367 72.514 354.413 73.521 368.273 75.502 385.256 77.93 401.42 81.822 416.843 86.838 L405.683 120.785 C550.683 168.502 623.6 339.075 624.303 340.75 628.323 350.418 725.133 577.933 933.08 607.629 L941.7 547.195 C768.443 522.452 681.493 319.319 680.646 317.305 Z" fill="#00878f" fill-opacity="1" stroke="none"/>
 <path id="path-30" d="M1253.057 329.031 L1228.543 329.031 C1228.543 261.496 1198.76 196.914 1146.83 151.841 1091.043 103.419 1015.346 81.895 939.123 92.761 L935.667 68.485 C1018.91 56.599 1101.736 80.234 1162.893 133.314 1220.193 183.046 1253.057 254.382 1253.057 329.031 Z" fill="#e5ad24" fill-opacity="1" stroke="none"/>
 <path id="path-31" d="M295.493 226.168 L361.783 226.168 361.783 431.936 295.493 431.936 Z" fill="#e5ad24" fill-opacity="1" stroke="none"/>
 <path id="path-32" d="M225.81 295.894 L431.46 295.894 431.46 362.227 225.81 362.227 Z" fill="#00878f" fill-opacity="1" stroke="none"/>
 <path id="path-33" d="M1313.853 359.006 L1287.657 356.575 C1288.493 347.523 1288.92 338.258 1288.92 329.027 1288.92 248.293 1256.423 172.728 1197.417 116.242 L1215.606 97.223 C1279.847 158.718 1315.23 241.042 1315.23 329.027 1315.227 339.062 1314.766 349.151 1313.853 359.006 Z" fill="#62aeb2" fill-opacity="1" stroke="none"/>
 <path id="path-34" d="M1223.717 374.324 L1206.613 370.922 C1209.36 357.088 1210.753 342.871 1210.753 328.67 1210.753 269.247 1186.719 213.512 1143.083 171.734 L1155.133 159.131 C1202.243 204.23 1228.186 264.441 1228.186 328.67 1228.19 344.011 1226.683 359.369 1223.717 374.324 Z" fill="#00878f" fill-opacity="1" stroke="none"/>
 <path id="path-35" d="M1193.767 378.522 L1154.183 368.427 C1157.443 355.641 1159.093 342.384 1159.097 329.027 1159.097 235.516 1078.04 159.438 978.403 159.438 968.703 159.438 958.783 160.148 948.92 161.545 946.31 161.919 943.706 162.349 941.113 162.826 L933.743 122.622 C936.87 122.049 940 121.535 943.167 121.082 954.94 119.411 966.79 118.564 978.4 118.564 1100.56 118.564 1199.946 212.982 1199.946 329.027 1199.943 345.792 1197.863 362.441 1193.767 378.522 Z" fill="#e47128" fill-opacity="1" stroke="none"/>
 <path id="path-36" d="M866.466 168.659 L861.756 160.158 C767.97 212.178 713.07 314.003 703.013 333.89 L693.083 354.113 682.58 348.947 678.25 358.569 715.516 375.311 732.223 338.085 C742.05 319.866 818.353 185.458 941.133 162.823 L937.44 142.759 C913.333 147.215 889.503 155.893 866.466 168.659 Z" fill="#00878f" fill-opacity="1" stroke="none"/>
 <path id="path-37" d="M978.51 619.198 C963.113 619.198 947.43 618.07 931.896 615.849 862.546 605.941 798.203 573.701 740.646 520.031 L765.713 493.124 C817.666 541.572 875.33 570.613 937.096 579.441 953.6 581.796 970.18 582.696 986.47 582.312 L987.33 619.088 C984.386 619.158 981.453 619.198 978.51 619.198 Z" fill="#62aeb2" fill-opacity="1" stroke="none"/>
 <path id="path-38" d="M1038.627 479.563 L1058.183 417.212 1075.537 417.212 1095.383 479.563 1078.99 479.563 1075.537 466.807 1057.61 466.807 1054.447 479.563 1038.627 479.563 Z M1066.236 431.986 L1060.583 454.817 1072.373 454.817 1066.236 431.986 Z" fill="#00878f" fill-opacity="1" stroke="none"/>
 <path id="path-39" d="M1105.263 417.212 L1130.383 417.212 C1147.64 417.212 1154.16 426.036 1154.16 438.029 1154.16 446.567 1150.71 453.09 1143.903 456.732 L1156.076 479.563 1137.86 479.563 1128.466 459.804 1120.7 459.804 1120.7 479.563 1105.263 479.563 1105.263 417.212 Z M1137.766 438.126 C1137.766 432.563 1135.753 429.781 1128.56 429.781 L1120.7 429.781 1120.7 447.43 1128.85 447.43 C1134.22 447.43 1137.766 445.033 1137.766 438.126 Z" fill="#00878f" fill-opacity="1" stroke="none"/>
 <path id="path-40" d="M1166.633 417.212 L1187.053 417.212 C1210.35 417.212 1218.116 428.248 1218.116 447.814 1218.116 462.588 1213.61 479.567 1187.15 479.567 L1166.633 479.567 1166.633 417.212 Z M1182.07 429.781 L1182.07 466.81 1187.916 466.81 C1200.67 466.81 1201.626 459.04 1201.626 448.488 1201.626 436.308 1200.38 429.785 1186.573 429.785 L1182.07 429.785 Z" fill="#00878f" fill-opacity="1" stroke="none"/>
 <path id="path-41" d="M1263.76 417.212 L1278.62 417.212 1278.62 458.173 C1278.62 476.589 1264.526 480.524 1253.503 480.524 1242.86 480.524 1229.246 476.975 1229.246 458.076 L1229.246 417.212 1244.683 417.212 1244.683 455.201 C1244.683 465.56 1248.326 467.958 1254.176 467.958 1261.176 467.958 1263.763 464.793 1263.763 455.295 L1263.763 417.212 Z" fill="#00878f" fill-opacity="1" stroke="none"/>
 <path id="path-42" d="M1292.43 466.807 L1308.536 466.807 1308.536 429.972 1292.43 429.972 1292.43 417.212 1340.177 417.212 1340.177 429.972 1323.973 429.972 1323.973 466.807 1340.177 466.807 1340.177 479.563 1292.43 479.563 1292.43 466.807 Z" fill="#00878f" fill-opacity="1" stroke="none"/>
 <path id="path-43" d="M1367.51 479.563 L1352.937 479.563 1352.937 417.212 1369.716 417.212 1389.943 454.624 1389.943 417.212 1404.323 417.212 1404.323 479.563 1388.696 479.563 1367.41 439.66 1367.51 479.563 Z" fill="#00878f" fill-opacity="1" stroke="none"/>
 <path id="path-44" d="M1467.42 448.391 C1467.42 466.424 1460.806 480.527 1440.766 480.527 1422.836 480.527 1414.59 469.685 1414.59 449.061 1414.59 430.259 1421.78 416.348 1440.67 416.348 1458.403 416.348 1467.42 424.599 1467.42 448.391 Z M1451.026 448.391 C1451.026 433.14 1449.78 428.918 1440.673 428.918 1432.426 428.918 1430.99 433.81 1430.99 449.061 1430.99 461.628 1431.853 467.958 1440.77 467.958 1449.78 467.958 1451.026 462.778 1451.026 448.391 Z" fill="#00878f" fill-opacity="1" stroke="none"/>
 <defs>
  <text id="string" transform="matrix(1.0 1.7453292519943293e-13 -1.7453292519943293e-13 1.0 946.3333333333491 557.1421319796185)">
   <tspan x="89.7688636844332" y="67.0" font-family="Helvetica-Bold, Helvetica" font-size="86.689" text-decoration="none" fill="#e47128">C</tspan>
   <tspan x="152.37263956086088" y="67.0" font-family="Helvetica-Bold, Helvetica" font-size="86.689" text-decoration="none" fill="#e47128">O</tspan>
   <tspan x="219.80185860829107" y="67.0" font-family="Helvetica-Bold, Helvetica" font-size="86.689" text-decoration="none" fill="#e47128">L</tspan>
   <tspan x="272.75474814271365" y="67.0" font-family="Helvetica-Bold, Helvetica" font-size="86.689" text-decoration="none" fill="#e47128">L</tspan>
   <tspan x="325.70763767713623" y="67.0" font-family="Helvetica-Bold, Helvetica" font-size="86.689" text-decoration="none" fill="#e47128">A</tspan>
   <tspan x="388.3114135535639" y="67.0" font-family="Helvetica-Bold, Helvetica" font-size="86.689" text-decoration="none" fill="#e47128">B</tspan>
   <tspan x="450.9151894299916" y="67.0" font-family="Helvetica-Bold, Helvetica" font-size="86.689" text-decoration="none" fill="#e47128">O</tspan>
   <tspan x="518.3444084774218" y="67.0" font-family="Helvetica-Bold, Helvetica" font-size="86.689" text-decoration="none" fill="#e47128">R</tspan>
   <tspan x="580.9481843538495" y="67.0" font-family="Helvetica-Bold, Helvetica" font-size="86.689" text-decoration="none" fill="#e47128">A</tspan>
   <tspan x="637.1603644511422" y="67.0" font-family="Helvetica-Bold, Helvetica" font-size="86.689" text-decoration="none" fill="#e47128">T</tspan>
   <tspan x="690.1132539855648" y="67.0" font-family="Helvetica-Bold, Helvetica" font-size="86.689" text-decoration="none" fill="#e47128">I</tspan>
   <tspan x="714.1981413917091" y="67.0" font-family="Helvetica-Bold, Helvetica" font-size="86.689" text-decoration="none" fill="#e47128">O</tspan>
   <tspan x="781.6273604391392" y="67.0" font-family="Helvetica-Bold, Helvetica" font-size="86.689" text-decoration="none" fill="#e47128">N</tspan>
  </text>
 </defs>
 <use id="collaboration" xlink:href="#string"/>
 <defs>
  <text id="string-1" transform="matrix(1.0 1.7453292519943293e-13 -1.7453292519943293e-13 1.0 980.0000000000084 483.43654822337464)">
   <tspan x="55.320785496642344" y="67.0" font-family="Helvetica-Bold, Helvetica" font-size="86.689" text-decoration="none" fill="#8c7965">C</tspan>
   <tspan x="117.92456137307" y="67.0" font-family="Helvetica-Bold, Helvetica" font-size="86.689" text-decoration="none" fill="#8c7965">H</tspan>
   <tspan x="180.52833724949767" y="67.0" font-family="Helvetica-Bold, Helvetica" font-size="86.689" text-decoration="none" fill="#8c7965">I</tspan>
   <tspan x="204.61322465564191" y="67.0" font-family="Helvetica-Bold, Helvetica" font-size="86.689" text-decoration="none" fill="#8c7965">C</tspan>
   <tspan x="267.21700053206956" y="67.0" font-family="Helvetica-Bold, Helvetica" font-size="86.689" text-decoration="none" fill="#8c7965">A</tspan>
   <tspan x="329.82077640849724" y="67.0" font-family="Helvetica-Bold, Helvetica" font-size="86.689" text-decoration="none" fill="#8c7965">G</tspan>
   <tspan x="397.24999545592743" y="67.0" font-family="Helvetica-Bold, Helvetica" font-size="86.689" text-decoration="none" fill="#8c7965">O</tspan>
  </text>
 </defs>
 <use id="chicago" xlink:href="#string-1"/>
</svg>
